M48
; DRILL file {KiCad 8.0.5} date 2024-09-19T16:10:07+0200
; FORMAT={-:-/ absolute / metric / decimal}
; #@! TF.CreationDate,2024-09-19T16:10:07+02:00
; #@! TF.GenerationSoftware,Kicad,Pcbnew,8.0.5
; #@! TF.FileFunction,Plated,1,2,PTH
FMAT,2
METRIC
; #@! TA.AperFunction,Plated,PTH,ComponentDrill
T1C0.800
; #@! TA.AperFunction,Plated,PTH,ComponentDrill
T2C0.813
; #@! TA.AperFunction,Plated,PTH,ComponentDrill
T3C1.000
%
G90
G05
T1
X2.96Y-2.44
X5.5Y-2.44
X8.04Y-2.44
X8.04Y-25.3
X10.58Y-2.44
X10.58Y-25.3
X13.12Y-2.44
X13.12Y-25.3
X15.66Y-2.44
X15.66Y-25.3
X18.2Y-2.44
X18.2Y-25.3
X20.74Y-2.44
X20.74Y-25.3
X23.28Y-2.44
X23.28Y-25.3
X25.82Y-2.44
X25.82Y-25.3
X28.36Y-2.44
X28.36Y-25.3
X30.9Y-2.44
X30.9Y-25.3
X33.44Y-2.44
X33.44Y-25.3
T2
X16.96Y-7.5
X18.23Y-10.04
X19.5Y-7.5
X20.77Y-10.04
X22.04Y-7.5
X23.31Y-10.04
X24.58Y-7.5
X25.85Y-10.04
X27.12Y-7.5
X28.39Y-10.04
T3
X5.526Y-16.54
X8.066Y-16.54
X10.606Y-16.54
X13.146Y-16.54
X15.686Y-16.54
X18.226Y-16.54
M30
