%TF.GenerationSoftware,KiCad,Pcbnew,8.0.5*%
%TF.CreationDate,2024-09-19T16:10:43+02:00*%
%TF.ProjectId,escon-carrier-board,6573636f-6e2d-4636-9172-726965722d62,rev?*%
%TF.SameCoordinates,Original*%
%TF.FileFunction,Drillmap*%
%TF.FilePolarity,Positive*%
%FSLAX45Y45*%
G04 Gerber Fmt 4.5, Leading zero omitted, Abs format (unit mm)*
G04 Created by KiCad (PCBNEW 8.0.5) date 2024-09-19 16:10:43*
%MOMM*%
%LPD*%
G01*
G04 APERTURE LIST*
%ADD10C,0.050000*%
%ADD11C,0.200000*%
%ADD12C,0.100000*%
G04 APERTURE END LIST*
D10*
X300000Y-1100000D02*
X100000Y-1100000D01*
X300000Y-1100000D02*
X300000Y-1600000D01*
X3500000Y-1600000D02*
X3500000Y-2700000D01*
X100000Y0D02*
X100000Y-1100000D01*
X3300000Y-1100000D02*
X3500000Y-1100000D01*
X100000Y-2700000D02*
X3500000Y-2700000D01*
X3500000Y0D02*
X3500000Y-1100000D01*
X300000Y-1600000D02*
X100000Y-1600000D01*
X3500000Y0D02*
X100000Y0D01*
X3300000Y-1100000D02*
X3300000Y-1600000D01*
X100000Y-1600000D02*
X100000Y-2700000D01*
X3500000Y-1600000D02*
X3300000Y-1600000D01*
D11*
D12*
X256000Y-204000D02*
X336000Y-284000D01*
X336000Y-204000D02*
X256000Y-284000D01*
X510000Y-204000D02*
X590000Y-284000D01*
X590000Y-204000D02*
X510000Y-284000D01*
X764000Y-204000D02*
X844000Y-284000D01*
X844000Y-204000D02*
X764000Y-284000D01*
X764000Y-2490000D02*
X844000Y-2570000D01*
X844000Y-2490000D02*
X764000Y-2570000D01*
X1018000Y-204000D02*
X1098000Y-284000D01*
X1098000Y-204000D02*
X1018000Y-284000D01*
X1018000Y-2490000D02*
X1098000Y-2570000D01*
X1098000Y-2490000D02*
X1018000Y-2570000D01*
X1272000Y-204000D02*
X1352000Y-284000D01*
X1352000Y-204000D02*
X1272000Y-284000D01*
X1272000Y-2490000D02*
X1352000Y-2570000D01*
X1352000Y-2490000D02*
X1272000Y-2570000D01*
X1526000Y-204000D02*
X1606000Y-284000D01*
X1606000Y-204000D02*
X1526000Y-284000D01*
X1526000Y-2490000D02*
X1606000Y-2570000D01*
X1606000Y-2490000D02*
X1526000Y-2570000D01*
X1780000Y-204000D02*
X1860000Y-284000D01*
X1860000Y-204000D02*
X1780000Y-284000D01*
X1780000Y-2490000D02*
X1860000Y-2570000D01*
X1860000Y-2490000D02*
X1780000Y-2570000D01*
X2034000Y-204000D02*
X2114000Y-284000D01*
X2114000Y-204000D02*
X2034000Y-284000D01*
X2034000Y-2490000D02*
X2114000Y-2570000D01*
X2114000Y-2490000D02*
X2034000Y-2570000D01*
X2288000Y-204000D02*
X2368000Y-284000D01*
X2368000Y-204000D02*
X2288000Y-284000D01*
X2288000Y-2490000D02*
X2368000Y-2570000D01*
X2368000Y-2490000D02*
X2288000Y-2570000D01*
X2542000Y-204000D02*
X2622000Y-284000D01*
X2622000Y-204000D02*
X2542000Y-284000D01*
X2542000Y-2490000D02*
X2622000Y-2570000D01*
X2622000Y-2490000D02*
X2542000Y-2570000D01*
X2796000Y-204000D02*
X2876000Y-284000D01*
X2876000Y-204000D02*
X2796000Y-284000D01*
X2796000Y-2490000D02*
X2876000Y-2570000D01*
X2876000Y-2490000D02*
X2796000Y-2570000D01*
X3050000Y-204000D02*
X3130000Y-284000D01*
X3130000Y-204000D02*
X3050000Y-284000D01*
X3050000Y-2490000D02*
X3130000Y-2570000D01*
X3130000Y-2490000D02*
X3050000Y-2570000D01*
X3304000Y-204000D02*
X3384000Y-284000D01*
X3384000Y-204000D02*
X3304000Y-284000D01*
X3304000Y-2490000D02*
X3384000Y-2570000D01*
X3384000Y-2490000D02*
X3304000Y-2570000D01*
X1736640Y-750000D02*
G75*
G02*
X1655360Y-750000I-40640J0D01*
G01*
X1655360Y-750000D02*
G75*
G02*
X1736640Y-750000I40640J0D01*
G01*
X1863640Y-1004000D02*
G75*
G02*
X1782360Y-1004000I-40640J0D01*
G01*
X1782360Y-1004000D02*
G75*
G02*
X1863640Y-1004000I40640J0D01*
G01*
X1990640Y-750000D02*
G75*
G02*
X1909360Y-750000I-40640J0D01*
G01*
X1909360Y-750000D02*
G75*
G02*
X1990640Y-750000I40640J0D01*
G01*
X2117640Y-1004000D02*
G75*
G02*
X2036360Y-1004000I-40640J0D01*
G01*
X2036360Y-1004000D02*
G75*
G02*
X2117640Y-1004000I40640J0D01*
G01*
X2244640Y-750000D02*
G75*
G02*
X2163360Y-750000I-40640J0D01*
G01*
X2163360Y-750000D02*
G75*
G02*
X2244640Y-750000I40640J0D01*
G01*
X2371640Y-1004000D02*
G75*
G02*
X2290360Y-1004000I-40640J0D01*
G01*
X2290360Y-1004000D02*
G75*
G02*
X2371640Y-1004000I40640J0D01*
G01*
X2498640Y-750000D02*
G75*
G02*
X2417360Y-750000I-40640J0D01*
G01*
X2417360Y-750000D02*
G75*
G02*
X2498640Y-750000I40640J0D01*
G01*
X2625640Y-1004000D02*
G75*
G02*
X2544360Y-1004000I-40640J0D01*
G01*
X2544360Y-1004000D02*
G75*
G02*
X2625640Y-1004000I40640J0D01*
G01*
X2752640Y-750000D02*
G75*
G02*
X2671360Y-750000I-40640J0D01*
G01*
X2671360Y-750000D02*
G75*
G02*
X2752640Y-750000I40640J0D01*
G01*
X2879640Y-1004000D02*
G75*
G02*
X2798360Y-1004000I-40640J0D01*
G01*
X2798360Y-1004000D02*
G75*
G02*
X2879640Y-1004000I40640J0D01*
G01*
X552650Y-1604000D02*
X552650Y-1704000D01*
X502650Y-1654000D02*
X602650Y-1654000D01*
X806650Y-1604000D02*
X806650Y-1704000D01*
X756650Y-1654000D02*
X856650Y-1654000D01*
X1060650Y-1604000D02*
X1060650Y-1704000D01*
X1010650Y-1654000D02*
X1110650Y-1654000D01*
X1314650Y-1604000D02*
X1314650Y-1704000D01*
X1264650Y-1654000D02*
X1364650Y-1654000D01*
X1568650Y-1604000D02*
X1568650Y-1704000D01*
X1518650Y-1654000D02*
X1618650Y-1654000D01*
X1822650Y-1604000D02*
X1822650Y-1704000D01*
X1772650Y-1654000D02*
X1872650Y-1654000D01*
D11*
X358277Y-3013984D02*
X358277Y-2813984D01*
X358277Y-2813984D02*
X405896Y-2813984D01*
X405896Y-2813984D02*
X434467Y-2823508D01*
X434467Y-2823508D02*
X453515Y-2842555D01*
X453515Y-2842555D02*
X463039Y-2861603D01*
X463039Y-2861603D02*
X472562Y-2899698D01*
X472562Y-2899698D02*
X472562Y-2928269D01*
X472562Y-2928269D02*
X463039Y-2966365D01*
X463039Y-2966365D02*
X453515Y-2985412D01*
X453515Y-2985412D02*
X434467Y-3004460D01*
X434467Y-3004460D02*
X405896Y-3013984D01*
X405896Y-3013984D02*
X358277Y-3013984D01*
X558277Y-3013984D02*
X558277Y-2880650D01*
X558277Y-2918746D02*
X567801Y-2899698D01*
X567801Y-2899698D02*
X577324Y-2890174D01*
X577324Y-2890174D02*
X596372Y-2880650D01*
X596372Y-2880650D02*
X615420Y-2880650D01*
X682086Y-3013984D02*
X682086Y-2880650D01*
X682086Y-2813984D02*
X672563Y-2823508D01*
X672563Y-2823508D02*
X682086Y-2833031D01*
X682086Y-2833031D02*
X691610Y-2823508D01*
X691610Y-2823508D02*
X682086Y-2813984D01*
X682086Y-2813984D02*
X682086Y-2833031D01*
X805896Y-3013984D02*
X786848Y-3004460D01*
X786848Y-3004460D02*
X777324Y-2985412D01*
X777324Y-2985412D02*
X777324Y-2813984D01*
X910658Y-3013984D02*
X891610Y-3004460D01*
X891610Y-3004460D02*
X882086Y-2985412D01*
X882086Y-2985412D02*
X882086Y-2813984D01*
X1139229Y-3013984D02*
X1139229Y-2813984D01*
X1139229Y-2813984D02*
X1205896Y-2956841D01*
X1205896Y-2956841D02*
X1272563Y-2813984D01*
X1272563Y-2813984D02*
X1272563Y-3013984D01*
X1453515Y-3013984D02*
X1453515Y-2909222D01*
X1453515Y-2909222D02*
X1443991Y-2890174D01*
X1443991Y-2890174D02*
X1424943Y-2880650D01*
X1424943Y-2880650D02*
X1386848Y-2880650D01*
X1386848Y-2880650D02*
X1367801Y-2890174D01*
X1453515Y-3004460D02*
X1434467Y-3013984D01*
X1434467Y-3013984D02*
X1386848Y-3013984D01*
X1386848Y-3013984D02*
X1367801Y-3004460D01*
X1367801Y-3004460D02*
X1358277Y-2985412D01*
X1358277Y-2985412D02*
X1358277Y-2966365D01*
X1358277Y-2966365D02*
X1367801Y-2947317D01*
X1367801Y-2947317D02*
X1386848Y-2937793D01*
X1386848Y-2937793D02*
X1434467Y-2937793D01*
X1434467Y-2937793D02*
X1453515Y-2928269D01*
X1548753Y-2880650D02*
X1548753Y-3080650D01*
X1548753Y-2890174D02*
X1567801Y-2880650D01*
X1567801Y-2880650D02*
X1605896Y-2880650D01*
X1605896Y-2880650D02*
X1624943Y-2890174D01*
X1624943Y-2890174D02*
X1634467Y-2899698D01*
X1634467Y-2899698D02*
X1643991Y-2918746D01*
X1643991Y-2918746D02*
X1643991Y-2975888D01*
X1643991Y-2975888D02*
X1634467Y-2994936D01*
X1634467Y-2994936D02*
X1624943Y-3004460D01*
X1624943Y-3004460D02*
X1605896Y-3013984D01*
X1605896Y-3013984D02*
X1567801Y-3013984D01*
X1567801Y-3013984D02*
X1548753Y-3004460D01*
X1729705Y-2994936D02*
X1739229Y-3004460D01*
X1739229Y-3004460D02*
X1729705Y-3013984D01*
X1729705Y-3013984D02*
X1720182Y-3004460D01*
X1720182Y-3004460D02*
X1729705Y-2994936D01*
X1729705Y-2994936D02*
X1729705Y-3013984D01*
X1729705Y-2890174D02*
X1739229Y-2899698D01*
X1739229Y-2899698D02*
X1729705Y-2909222D01*
X1729705Y-2909222D02*
X1720182Y-2899698D01*
X1720182Y-2899698D02*
X1729705Y-2890174D01*
X1729705Y-2890174D02*
X1729705Y-2909222D01*
D12*
X17500Y-3302500D02*
X97500Y-3382500D01*
X97500Y-3302500D02*
X17500Y-3382500D01*
D11*
X396372Y-3233984D02*
X415420Y-3233984D01*
X415420Y-3233984D02*
X434467Y-3243508D01*
X434467Y-3243508D02*
X443991Y-3253031D01*
X443991Y-3253031D02*
X453515Y-3272079D01*
X453515Y-3272079D02*
X463039Y-3310174D01*
X463039Y-3310174D02*
X463039Y-3357793D01*
X463039Y-3357793D02*
X453515Y-3395888D01*
X453515Y-3395888D02*
X443991Y-3414936D01*
X443991Y-3414936D02*
X434467Y-3424460D01*
X434467Y-3424460D02*
X415420Y-3433984D01*
X415420Y-3433984D02*
X396372Y-3433984D01*
X396372Y-3433984D02*
X377324Y-3424460D01*
X377324Y-3424460D02*
X367801Y-3414936D01*
X367801Y-3414936D02*
X358277Y-3395888D01*
X358277Y-3395888D02*
X348753Y-3357793D01*
X348753Y-3357793D02*
X348753Y-3310174D01*
X348753Y-3310174D02*
X358277Y-3272079D01*
X358277Y-3272079D02*
X367801Y-3253031D01*
X367801Y-3253031D02*
X377324Y-3243508D01*
X377324Y-3243508D02*
X396372Y-3233984D01*
X548753Y-3414936D02*
X558277Y-3424460D01*
X558277Y-3424460D02*
X548753Y-3433984D01*
X548753Y-3433984D02*
X539229Y-3424460D01*
X539229Y-3424460D02*
X548753Y-3414936D01*
X548753Y-3414936D02*
X548753Y-3433984D01*
X672563Y-3319698D02*
X653515Y-3310174D01*
X653515Y-3310174D02*
X643991Y-3300650D01*
X643991Y-3300650D02*
X634467Y-3281603D01*
X634467Y-3281603D02*
X634467Y-3272079D01*
X634467Y-3272079D02*
X643991Y-3253031D01*
X643991Y-3253031D02*
X653515Y-3243508D01*
X653515Y-3243508D02*
X672563Y-3233984D01*
X672563Y-3233984D02*
X710658Y-3233984D01*
X710658Y-3233984D02*
X729705Y-3243508D01*
X729705Y-3243508D02*
X739229Y-3253031D01*
X739229Y-3253031D02*
X748753Y-3272079D01*
X748753Y-3272079D02*
X748753Y-3281603D01*
X748753Y-3281603D02*
X739229Y-3300650D01*
X739229Y-3300650D02*
X729705Y-3310174D01*
X729705Y-3310174D02*
X710658Y-3319698D01*
X710658Y-3319698D02*
X672563Y-3319698D01*
X672563Y-3319698D02*
X653515Y-3329222D01*
X653515Y-3329222D02*
X643991Y-3338746D01*
X643991Y-3338746D02*
X634467Y-3357793D01*
X634467Y-3357793D02*
X634467Y-3395888D01*
X634467Y-3395888D02*
X643991Y-3414936D01*
X643991Y-3414936D02*
X653515Y-3424460D01*
X653515Y-3424460D02*
X672563Y-3433984D01*
X672563Y-3433984D02*
X710658Y-3433984D01*
X710658Y-3433984D02*
X729705Y-3424460D01*
X729705Y-3424460D02*
X739229Y-3414936D01*
X739229Y-3414936D02*
X748753Y-3395888D01*
X748753Y-3395888D02*
X748753Y-3357793D01*
X748753Y-3357793D02*
X739229Y-3338746D01*
X739229Y-3338746D02*
X729705Y-3329222D01*
X729705Y-3329222D02*
X710658Y-3319698D01*
X872562Y-3233984D02*
X891610Y-3233984D01*
X891610Y-3233984D02*
X910658Y-3243508D01*
X910658Y-3243508D02*
X920182Y-3253031D01*
X920182Y-3253031D02*
X929705Y-3272079D01*
X929705Y-3272079D02*
X939229Y-3310174D01*
X939229Y-3310174D02*
X939229Y-3357793D01*
X939229Y-3357793D02*
X929705Y-3395888D01*
X929705Y-3395888D02*
X920182Y-3414936D01*
X920182Y-3414936D02*
X910658Y-3424460D01*
X910658Y-3424460D02*
X891610Y-3433984D01*
X891610Y-3433984D02*
X872562Y-3433984D01*
X872562Y-3433984D02*
X853515Y-3424460D01*
X853515Y-3424460D02*
X843991Y-3414936D01*
X843991Y-3414936D02*
X834467Y-3395888D01*
X834467Y-3395888D02*
X824943Y-3357793D01*
X824943Y-3357793D02*
X824943Y-3310174D01*
X824943Y-3310174D02*
X834467Y-3272079D01*
X834467Y-3272079D02*
X843991Y-3253031D01*
X843991Y-3253031D02*
X853515Y-3243508D01*
X853515Y-3243508D02*
X872562Y-3233984D01*
X1063039Y-3233984D02*
X1082086Y-3233984D01*
X1082086Y-3233984D02*
X1101134Y-3243508D01*
X1101134Y-3243508D02*
X1110658Y-3253031D01*
X1110658Y-3253031D02*
X1120182Y-3272079D01*
X1120182Y-3272079D02*
X1129705Y-3310174D01*
X1129705Y-3310174D02*
X1129705Y-3357793D01*
X1129705Y-3357793D02*
X1120182Y-3395888D01*
X1120182Y-3395888D02*
X1110658Y-3414936D01*
X1110658Y-3414936D02*
X1101134Y-3424460D01*
X1101134Y-3424460D02*
X1082086Y-3433984D01*
X1082086Y-3433984D02*
X1063039Y-3433984D01*
X1063039Y-3433984D02*
X1043991Y-3424460D01*
X1043991Y-3424460D02*
X1034467Y-3414936D01*
X1034467Y-3414936D02*
X1024943Y-3395888D01*
X1024943Y-3395888D02*
X1015420Y-3357793D01*
X1015420Y-3357793D02*
X1015420Y-3310174D01*
X1015420Y-3310174D02*
X1024943Y-3272079D01*
X1024943Y-3272079D02*
X1034467Y-3253031D01*
X1034467Y-3253031D02*
X1043991Y-3243508D01*
X1043991Y-3243508D02*
X1063039Y-3233984D01*
X1215420Y-3433984D02*
X1215420Y-3300650D01*
X1215420Y-3319698D02*
X1224944Y-3310174D01*
X1224944Y-3310174D02*
X1243991Y-3300650D01*
X1243991Y-3300650D02*
X1272563Y-3300650D01*
X1272563Y-3300650D02*
X1291610Y-3310174D01*
X1291610Y-3310174D02*
X1301134Y-3329222D01*
X1301134Y-3329222D02*
X1301134Y-3433984D01*
X1301134Y-3329222D02*
X1310658Y-3310174D01*
X1310658Y-3310174D02*
X1329705Y-3300650D01*
X1329705Y-3300650D02*
X1358277Y-3300650D01*
X1358277Y-3300650D02*
X1377325Y-3310174D01*
X1377325Y-3310174D02*
X1386848Y-3329222D01*
X1386848Y-3329222D02*
X1386848Y-3433984D01*
X1482086Y-3433984D02*
X1482086Y-3300650D01*
X1482086Y-3319698D02*
X1491610Y-3310174D01*
X1491610Y-3310174D02*
X1510658Y-3300650D01*
X1510658Y-3300650D02*
X1539229Y-3300650D01*
X1539229Y-3300650D02*
X1558277Y-3310174D01*
X1558277Y-3310174D02*
X1567801Y-3329222D01*
X1567801Y-3329222D02*
X1567801Y-3433984D01*
X1567801Y-3329222D02*
X1577324Y-3310174D01*
X1577324Y-3310174D02*
X1596372Y-3300650D01*
X1596372Y-3300650D02*
X1624943Y-3300650D01*
X1624943Y-3300650D02*
X1643991Y-3310174D01*
X1643991Y-3310174D02*
X1653515Y-3329222D01*
X1653515Y-3329222D02*
X1653515Y-3433984D01*
X2043991Y-3224460D02*
X1872563Y-3481603D01*
X2301134Y-3233984D02*
X2320182Y-3233984D01*
X2320182Y-3233984D02*
X2339229Y-3243508D01*
X2339229Y-3243508D02*
X2348753Y-3253031D01*
X2348753Y-3253031D02*
X2358277Y-3272079D01*
X2358277Y-3272079D02*
X2367801Y-3310174D01*
X2367801Y-3310174D02*
X2367801Y-3357793D01*
X2367801Y-3357793D02*
X2358277Y-3395888D01*
X2358277Y-3395888D02*
X2348753Y-3414936D01*
X2348753Y-3414936D02*
X2339229Y-3424460D01*
X2339229Y-3424460D02*
X2320182Y-3433984D01*
X2320182Y-3433984D02*
X2301134Y-3433984D01*
X2301134Y-3433984D02*
X2282087Y-3424460D01*
X2282087Y-3424460D02*
X2272563Y-3414936D01*
X2272563Y-3414936D02*
X2263039Y-3395888D01*
X2263039Y-3395888D02*
X2253515Y-3357793D01*
X2253515Y-3357793D02*
X2253515Y-3310174D01*
X2253515Y-3310174D02*
X2263039Y-3272079D01*
X2263039Y-3272079D02*
X2272563Y-3253031D01*
X2272563Y-3253031D02*
X2282087Y-3243508D01*
X2282087Y-3243508D02*
X2301134Y-3233984D01*
X2453515Y-3414936D02*
X2463039Y-3424460D01*
X2463039Y-3424460D02*
X2453515Y-3433984D01*
X2453515Y-3433984D02*
X2443991Y-3424460D01*
X2443991Y-3424460D02*
X2453515Y-3414936D01*
X2453515Y-3414936D02*
X2453515Y-3433984D01*
X2586848Y-3233984D02*
X2605896Y-3233984D01*
X2605896Y-3233984D02*
X2624944Y-3243508D01*
X2624944Y-3243508D02*
X2634468Y-3253031D01*
X2634468Y-3253031D02*
X2643991Y-3272079D01*
X2643991Y-3272079D02*
X2653515Y-3310174D01*
X2653515Y-3310174D02*
X2653515Y-3357793D01*
X2653515Y-3357793D02*
X2643991Y-3395888D01*
X2643991Y-3395888D02*
X2634468Y-3414936D01*
X2634468Y-3414936D02*
X2624944Y-3424460D01*
X2624944Y-3424460D02*
X2605896Y-3433984D01*
X2605896Y-3433984D02*
X2586848Y-3433984D01*
X2586848Y-3433984D02*
X2567801Y-3424460D01*
X2567801Y-3424460D02*
X2558277Y-3414936D01*
X2558277Y-3414936D02*
X2548753Y-3395888D01*
X2548753Y-3395888D02*
X2539229Y-3357793D01*
X2539229Y-3357793D02*
X2539229Y-3310174D01*
X2539229Y-3310174D02*
X2548753Y-3272079D01*
X2548753Y-3272079D02*
X2558277Y-3253031D01*
X2558277Y-3253031D02*
X2567801Y-3243508D01*
X2567801Y-3243508D02*
X2586848Y-3233984D01*
X2720182Y-3233984D02*
X2843991Y-3233984D01*
X2843991Y-3233984D02*
X2777325Y-3310174D01*
X2777325Y-3310174D02*
X2805896Y-3310174D01*
X2805896Y-3310174D02*
X2824944Y-3319698D01*
X2824944Y-3319698D02*
X2834467Y-3329222D01*
X2834467Y-3329222D02*
X2843991Y-3348269D01*
X2843991Y-3348269D02*
X2843991Y-3395888D01*
X2843991Y-3395888D02*
X2834467Y-3414936D01*
X2834467Y-3414936D02*
X2824944Y-3424460D01*
X2824944Y-3424460D02*
X2805896Y-3433984D01*
X2805896Y-3433984D02*
X2748753Y-3433984D01*
X2748753Y-3433984D02*
X2729706Y-3424460D01*
X2729706Y-3424460D02*
X2720182Y-3414936D01*
X3034467Y-3433984D02*
X2920182Y-3433984D01*
X2977325Y-3433984D02*
X2977325Y-3233984D01*
X2977325Y-3233984D02*
X2958277Y-3262555D01*
X2958277Y-3262555D02*
X2939229Y-3281603D01*
X2939229Y-3281603D02*
X2920182Y-3291127D01*
X3215420Y-3233984D02*
X3120182Y-3233984D01*
X3120182Y-3233984D02*
X3110658Y-3329222D01*
X3110658Y-3329222D02*
X3120182Y-3319698D01*
X3120182Y-3319698D02*
X3139229Y-3310174D01*
X3139229Y-3310174D02*
X3186848Y-3310174D01*
X3186848Y-3310174D02*
X3205896Y-3319698D01*
X3205896Y-3319698D02*
X3215420Y-3329222D01*
X3215420Y-3329222D02*
X3224944Y-3348269D01*
X3224944Y-3348269D02*
X3224944Y-3395888D01*
X3224944Y-3395888D02*
X3215420Y-3414936D01*
X3215420Y-3414936D02*
X3205896Y-3424460D01*
X3205896Y-3424460D02*
X3186848Y-3433984D01*
X3186848Y-3433984D02*
X3139229Y-3433984D01*
X3139229Y-3433984D02*
X3120182Y-3424460D01*
X3120182Y-3424460D02*
X3110658Y-3414936D01*
X3301134Y-3233984D02*
X3301134Y-3272079D01*
X3377325Y-3233984D02*
X3377325Y-3272079D01*
X3672563Y-3510174D02*
X3663039Y-3500650D01*
X3663039Y-3500650D02*
X3643991Y-3472079D01*
X3643991Y-3472079D02*
X3634468Y-3453031D01*
X3634468Y-3453031D02*
X3624944Y-3424460D01*
X3624944Y-3424460D02*
X3615420Y-3376841D01*
X3615420Y-3376841D02*
X3615420Y-3338746D01*
X3615420Y-3338746D02*
X3624944Y-3291127D01*
X3624944Y-3291127D02*
X3634468Y-3262555D01*
X3634468Y-3262555D02*
X3643991Y-3243508D01*
X3643991Y-3243508D02*
X3663039Y-3214936D01*
X3663039Y-3214936D02*
X3672563Y-3205412D01*
X3739229Y-3253031D02*
X3748753Y-3243508D01*
X3748753Y-3243508D02*
X3767801Y-3233984D01*
X3767801Y-3233984D02*
X3815420Y-3233984D01*
X3815420Y-3233984D02*
X3834468Y-3243508D01*
X3834468Y-3243508D02*
X3843991Y-3253031D01*
X3843991Y-3253031D02*
X3853515Y-3272079D01*
X3853515Y-3272079D02*
X3853515Y-3291127D01*
X3853515Y-3291127D02*
X3843991Y-3319698D01*
X3843991Y-3319698D02*
X3729706Y-3433984D01*
X3729706Y-3433984D02*
X3853515Y-3433984D01*
X4024944Y-3300650D02*
X4024944Y-3433984D01*
X3977325Y-3224460D02*
X3929706Y-3367317D01*
X3929706Y-3367317D02*
X4053515Y-3367317D01*
X4282087Y-3433984D02*
X4282087Y-3233984D01*
X4367801Y-3433984D02*
X4367801Y-3329222D01*
X4367801Y-3329222D02*
X4358277Y-3310174D01*
X4358277Y-3310174D02*
X4339230Y-3300650D01*
X4339230Y-3300650D02*
X4310658Y-3300650D01*
X4310658Y-3300650D02*
X4291611Y-3310174D01*
X4291611Y-3310174D02*
X4282087Y-3319698D01*
X4491611Y-3433984D02*
X4472563Y-3424460D01*
X4472563Y-3424460D02*
X4463039Y-3414936D01*
X4463039Y-3414936D02*
X4453515Y-3395888D01*
X4453515Y-3395888D02*
X4453515Y-3338746D01*
X4453515Y-3338746D02*
X4463039Y-3319698D01*
X4463039Y-3319698D02*
X4472563Y-3310174D01*
X4472563Y-3310174D02*
X4491611Y-3300650D01*
X4491611Y-3300650D02*
X4520182Y-3300650D01*
X4520182Y-3300650D02*
X4539230Y-3310174D01*
X4539230Y-3310174D02*
X4548753Y-3319698D01*
X4548753Y-3319698D02*
X4558277Y-3338746D01*
X4558277Y-3338746D02*
X4558277Y-3395888D01*
X4558277Y-3395888D02*
X4548753Y-3414936D01*
X4548753Y-3414936D02*
X4539230Y-3424460D01*
X4539230Y-3424460D02*
X4520182Y-3433984D01*
X4520182Y-3433984D02*
X4491611Y-3433984D01*
X4672563Y-3433984D02*
X4653515Y-3424460D01*
X4653515Y-3424460D02*
X4643992Y-3405412D01*
X4643992Y-3405412D02*
X4643992Y-3233984D01*
X4824944Y-3424460D02*
X4805896Y-3433984D01*
X4805896Y-3433984D02*
X4767801Y-3433984D01*
X4767801Y-3433984D02*
X4748753Y-3424460D01*
X4748753Y-3424460D02*
X4739230Y-3405412D01*
X4739230Y-3405412D02*
X4739230Y-3329222D01*
X4739230Y-3329222D02*
X4748753Y-3310174D01*
X4748753Y-3310174D02*
X4767801Y-3300650D01*
X4767801Y-3300650D02*
X4805896Y-3300650D01*
X4805896Y-3300650D02*
X4824944Y-3310174D01*
X4824944Y-3310174D02*
X4834468Y-3329222D01*
X4834468Y-3329222D02*
X4834468Y-3348269D01*
X4834468Y-3348269D02*
X4739230Y-3367317D01*
X4910658Y-3424460D02*
X4929706Y-3433984D01*
X4929706Y-3433984D02*
X4967801Y-3433984D01*
X4967801Y-3433984D02*
X4986849Y-3424460D01*
X4986849Y-3424460D02*
X4996373Y-3405412D01*
X4996373Y-3405412D02*
X4996373Y-3395888D01*
X4996373Y-3395888D02*
X4986849Y-3376841D01*
X4986849Y-3376841D02*
X4967801Y-3367317D01*
X4967801Y-3367317D02*
X4939230Y-3367317D01*
X4939230Y-3367317D02*
X4920182Y-3357793D01*
X4920182Y-3357793D02*
X4910658Y-3338746D01*
X4910658Y-3338746D02*
X4910658Y-3329222D01*
X4910658Y-3329222D02*
X4920182Y-3310174D01*
X4920182Y-3310174D02*
X4939230Y-3300650D01*
X4939230Y-3300650D02*
X4967801Y-3300650D01*
X4967801Y-3300650D02*
X4986849Y-3310174D01*
X5063039Y-3510174D02*
X5072563Y-3500650D01*
X5072563Y-3500650D02*
X5091611Y-3472079D01*
X5091611Y-3472079D02*
X5101134Y-3453031D01*
X5101134Y-3453031D02*
X5110658Y-3424460D01*
X5110658Y-3424460D02*
X5120182Y-3376841D01*
X5120182Y-3376841D02*
X5120182Y-3338746D01*
X5120182Y-3338746D02*
X5110658Y-3291127D01*
X5110658Y-3291127D02*
X5101134Y-3262555D01*
X5101134Y-3262555D02*
X5091611Y-3243508D01*
X5091611Y-3243508D02*
X5072563Y-3214936D01*
X5072563Y-3214936D02*
X5063039Y-3205412D01*
D12*
X97500Y-3606500D02*
G75*
G02*
X16220Y-3606500I-40640J0D01*
G01*
X16220Y-3606500D02*
G75*
G02*
X97500Y-3606500I40640J0D01*
G01*
D11*
X396372Y-3497984D02*
X415420Y-3497984D01*
X415420Y-3497984D02*
X434467Y-3507508D01*
X434467Y-3507508D02*
X443991Y-3517031D01*
X443991Y-3517031D02*
X453515Y-3536079D01*
X453515Y-3536079D02*
X463039Y-3574174D01*
X463039Y-3574174D02*
X463039Y-3621793D01*
X463039Y-3621793D02*
X453515Y-3659888D01*
X453515Y-3659888D02*
X443991Y-3678936D01*
X443991Y-3678936D02*
X434467Y-3688460D01*
X434467Y-3688460D02*
X415420Y-3697984D01*
X415420Y-3697984D02*
X396372Y-3697984D01*
X396372Y-3697984D02*
X377324Y-3688460D01*
X377324Y-3688460D02*
X367801Y-3678936D01*
X367801Y-3678936D02*
X358277Y-3659888D01*
X358277Y-3659888D02*
X348753Y-3621793D01*
X348753Y-3621793D02*
X348753Y-3574174D01*
X348753Y-3574174D02*
X358277Y-3536079D01*
X358277Y-3536079D02*
X367801Y-3517031D01*
X367801Y-3517031D02*
X377324Y-3507508D01*
X377324Y-3507508D02*
X396372Y-3497984D01*
X548753Y-3678936D02*
X558277Y-3688460D01*
X558277Y-3688460D02*
X548753Y-3697984D01*
X548753Y-3697984D02*
X539229Y-3688460D01*
X539229Y-3688460D02*
X548753Y-3678936D01*
X548753Y-3678936D02*
X548753Y-3697984D01*
X672563Y-3583698D02*
X653515Y-3574174D01*
X653515Y-3574174D02*
X643991Y-3564650D01*
X643991Y-3564650D02*
X634467Y-3545603D01*
X634467Y-3545603D02*
X634467Y-3536079D01*
X634467Y-3536079D02*
X643991Y-3517031D01*
X643991Y-3517031D02*
X653515Y-3507508D01*
X653515Y-3507508D02*
X672563Y-3497984D01*
X672563Y-3497984D02*
X710658Y-3497984D01*
X710658Y-3497984D02*
X729705Y-3507508D01*
X729705Y-3507508D02*
X739229Y-3517031D01*
X739229Y-3517031D02*
X748753Y-3536079D01*
X748753Y-3536079D02*
X748753Y-3545603D01*
X748753Y-3545603D02*
X739229Y-3564650D01*
X739229Y-3564650D02*
X729705Y-3574174D01*
X729705Y-3574174D02*
X710658Y-3583698D01*
X710658Y-3583698D02*
X672563Y-3583698D01*
X672563Y-3583698D02*
X653515Y-3593222D01*
X653515Y-3593222D02*
X643991Y-3602746D01*
X643991Y-3602746D02*
X634467Y-3621793D01*
X634467Y-3621793D02*
X634467Y-3659888D01*
X634467Y-3659888D02*
X643991Y-3678936D01*
X643991Y-3678936D02*
X653515Y-3688460D01*
X653515Y-3688460D02*
X672563Y-3697984D01*
X672563Y-3697984D02*
X710658Y-3697984D01*
X710658Y-3697984D02*
X729705Y-3688460D01*
X729705Y-3688460D02*
X739229Y-3678936D01*
X739229Y-3678936D02*
X748753Y-3659888D01*
X748753Y-3659888D02*
X748753Y-3621793D01*
X748753Y-3621793D02*
X739229Y-3602746D01*
X739229Y-3602746D02*
X729705Y-3593222D01*
X729705Y-3593222D02*
X710658Y-3583698D01*
X939229Y-3697984D02*
X824943Y-3697984D01*
X882086Y-3697984D02*
X882086Y-3497984D01*
X882086Y-3497984D02*
X863039Y-3526555D01*
X863039Y-3526555D02*
X843991Y-3545603D01*
X843991Y-3545603D02*
X824943Y-3555127D01*
X1005896Y-3497984D02*
X1129705Y-3497984D01*
X1129705Y-3497984D02*
X1063039Y-3574174D01*
X1063039Y-3574174D02*
X1091610Y-3574174D01*
X1091610Y-3574174D02*
X1110658Y-3583698D01*
X1110658Y-3583698D02*
X1120182Y-3593222D01*
X1120182Y-3593222D02*
X1129705Y-3612269D01*
X1129705Y-3612269D02*
X1129705Y-3659888D01*
X1129705Y-3659888D02*
X1120182Y-3678936D01*
X1120182Y-3678936D02*
X1110658Y-3688460D01*
X1110658Y-3688460D02*
X1091610Y-3697984D01*
X1091610Y-3697984D02*
X1034467Y-3697984D01*
X1034467Y-3697984D02*
X1015420Y-3688460D01*
X1015420Y-3688460D02*
X1005896Y-3678936D01*
X1215420Y-3697984D02*
X1215420Y-3564650D01*
X1215420Y-3583698D02*
X1224944Y-3574174D01*
X1224944Y-3574174D02*
X1243991Y-3564650D01*
X1243991Y-3564650D02*
X1272563Y-3564650D01*
X1272563Y-3564650D02*
X1291610Y-3574174D01*
X1291610Y-3574174D02*
X1301134Y-3593222D01*
X1301134Y-3593222D02*
X1301134Y-3697984D01*
X1301134Y-3593222D02*
X1310658Y-3574174D01*
X1310658Y-3574174D02*
X1329705Y-3564650D01*
X1329705Y-3564650D02*
X1358277Y-3564650D01*
X1358277Y-3564650D02*
X1377325Y-3574174D01*
X1377325Y-3574174D02*
X1386848Y-3593222D01*
X1386848Y-3593222D02*
X1386848Y-3697984D01*
X1482086Y-3697984D02*
X1482086Y-3564650D01*
X1482086Y-3583698D02*
X1491610Y-3574174D01*
X1491610Y-3574174D02*
X1510658Y-3564650D01*
X1510658Y-3564650D02*
X1539229Y-3564650D01*
X1539229Y-3564650D02*
X1558277Y-3574174D01*
X1558277Y-3574174D02*
X1567801Y-3593222D01*
X1567801Y-3593222D02*
X1567801Y-3697984D01*
X1567801Y-3593222D02*
X1577324Y-3574174D01*
X1577324Y-3574174D02*
X1596372Y-3564650D01*
X1596372Y-3564650D02*
X1624943Y-3564650D01*
X1624943Y-3564650D02*
X1643991Y-3574174D01*
X1643991Y-3574174D02*
X1653515Y-3593222D01*
X1653515Y-3593222D02*
X1653515Y-3697984D01*
X2043991Y-3488460D02*
X1872563Y-3745603D01*
X2301134Y-3497984D02*
X2320182Y-3497984D01*
X2320182Y-3497984D02*
X2339229Y-3507508D01*
X2339229Y-3507508D02*
X2348753Y-3517031D01*
X2348753Y-3517031D02*
X2358277Y-3536079D01*
X2358277Y-3536079D02*
X2367801Y-3574174D01*
X2367801Y-3574174D02*
X2367801Y-3621793D01*
X2367801Y-3621793D02*
X2358277Y-3659888D01*
X2358277Y-3659888D02*
X2348753Y-3678936D01*
X2348753Y-3678936D02*
X2339229Y-3688460D01*
X2339229Y-3688460D02*
X2320182Y-3697984D01*
X2320182Y-3697984D02*
X2301134Y-3697984D01*
X2301134Y-3697984D02*
X2282087Y-3688460D01*
X2282087Y-3688460D02*
X2272563Y-3678936D01*
X2272563Y-3678936D02*
X2263039Y-3659888D01*
X2263039Y-3659888D02*
X2253515Y-3621793D01*
X2253515Y-3621793D02*
X2253515Y-3574174D01*
X2253515Y-3574174D02*
X2263039Y-3536079D01*
X2263039Y-3536079D02*
X2272563Y-3517031D01*
X2272563Y-3517031D02*
X2282087Y-3507508D01*
X2282087Y-3507508D02*
X2301134Y-3497984D01*
X2453515Y-3678936D02*
X2463039Y-3688460D01*
X2463039Y-3688460D02*
X2453515Y-3697984D01*
X2453515Y-3697984D02*
X2443991Y-3688460D01*
X2443991Y-3688460D02*
X2453515Y-3678936D01*
X2453515Y-3678936D02*
X2453515Y-3697984D01*
X2586848Y-3497984D02*
X2605896Y-3497984D01*
X2605896Y-3497984D02*
X2624944Y-3507508D01*
X2624944Y-3507508D02*
X2634468Y-3517031D01*
X2634468Y-3517031D02*
X2643991Y-3536079D01*
X2643991Y-3536079D02*
X2653515Y-3574174D01*
X2653515Y-3574174D02*
X2653515Y-3621793D01*
X2653515Y-3621793D02*
X2643991Y-3659888D01*
X2643991Y-3659888D02*
X2634468Y-3678936D01*
X2634468Y-3678936D02*
X2624944Y-3688460D01*
X2624944Y-3688460D02*
X2605896Y-3697984D01*
X2605896Y-3697984D02*
X2586848Y-3697984D01*
X2586848Y-3697984D02*
X2567801Y-3688460D01*
X2567801Y-3688460D02*
X2558277Y-3678936D01*
X2558277Y-3678936D02*
X2548753Y-3659888D01*
X2548753Y-3659888D02*
X2539229Y-3621793D01*
X2539229Y-3621793D02*
X2539229Y-3574174D01*
X2539229Y-3574174D02*
X2548753Y-3536079D01*
X2548753Y-3536079D02*
X2558277Y-3517031D01*
X2558277Y-3517031D02*
X2567801Y-3507508D01*
X2567801Y-3507508D02*
X2586848Y-3497984D01*
X2720182Y-3497984D02*
X2843991Y-3497984D01*
X2843991Y-3497984D02*
X2777325Y-3574174D01*
X2777325Y-3574174D02*
X2805896Y-3574174D01*
X2805896Y-3574174D02*
X2824944Y-3583698D01*
X2824944Y-3583698D02*
X2834467Y-3593222D01*
X2834467Y-3593222D02*
X2843991Y-3612269D01*
X2843991Y-3612269D02*
X2843991Y-3659888D01*
X2843991Y-3659888D02*
X2834467Y-3678936D01*
X2834467Y-3678936D02*
X2824944Y-3688460D01*
X2824944Y-3688460D02*
X2805896Y-3697984D01*
X2805896Y-3697984D02*
X2748753Y-3697984D01*
X2748753Y-3697984D02*
X2729706Y-3688460D01*
X2729706Y-3688460D02*
X2720182Y-3678936D01*
X2920182Y-3517031D02*
X2929706Y-3507508D01*
X2929706Y-3507508D02*
X2948753Y-3497984D01*
X2948753Y-3497984D02*
X2996372Y-3497984D01*
X2996372Y-3497984D02*
X3015420Y-3507508D01*
X3015420Y-3507508D02*
X3024944Y-3517031D01*
X3024944Y-3517031D02*
X3034467Y-3536079D01*
X3034467Y-3536079D02*
X3034467Y-3555127D01*
X3034467Y-3555127D02*
X3024944Y-3583698D01*
X3024944Y-3583698D02*
X2910658Y-3697984D01*
X2910658Y-3697984D02*
X3034467Y-3697984D01*
X3158277Y-3497984D02*
X3177325Y-3497984D01*
X3177325Y-3497984D02*
X3196372Y-3507508D01*
X3196372Y-3507508D02*
X3205896Y-3517031D01*
X3205896Y-3517031D02*
X3215420Y-3536079D01*
X3215420Y-3536079D02*
X3224944Y-3574174D01*
X3224944Y-3574174D02*
X3224944Y-3621793D01*
X3224944Y-3621793D02*
X3215420Y-3659888D01*
X3215420Y-3659888D02*
X3205896Y-3678936D01*
X3205896Y-3678936D02*
X3196372Y-3688460D01*
X3196372Y-3688460D02*
X3177325Y-3697984D01*
X3177325Y-3697984D02*
X3158277Y-3697984D01*
X3158277Y-3697984D02*
X3139229Y-3688460D01*
X3139229Y-3688460D02*
X3129706Y-3678936D01*
X3129706Y-3678936D02*
X3120182Y-3659888D01*
X3120182Y-3659888D02*
X3110658Y-3621793D01*
X3110658Y-3621793D02*
X3110658Y-3574174D01*
X3110658Y-3574174D02*
X3120182Y-3536079D01*
X3120182Y-3536079D02*
X3129706Y-3517031D01*
X3129706Y-3517031D02*
X3139229Y-3507508D01*
X3139229Y-3507508D02*
X3158277Y-3497984D01*
X3301134Y-3497984D02*
X3301134Y-3536079D01*
X3377325Y-3497984D02*
X3377325Y-3536079D01*
X3672563Y-3774174D02*
X3663039Y-3764650D01*
X3663039Y-3764650D02*
X3643991Y-3736079D01*
X3643991Y-3736079D02*
X3634468Y-3717031D01*
X3634468Y-3717031D02*
X3624944Y-3688460D01*
X3624944Y-3688460D02*
X3615420Y-3640841D01*
X3615420Y-3640841D02*
X3615420Y-3602746D01*
X3615420Y-3602746D02*
X3624944Y-3555127D01*
X3624944Y-3555127D02*
X3634468Y-3526555D01*
X3634468Y-3526555D02*
X3643991Y-3507508D01*
X3643991Y-3507508D02*
X3663039Y-3478936D01*
X3663039Y-3478936D02*
X3672563Y-3469412D01*
X3853515Y-3697984D02*
X3739229Y-3697984D01*
X3796372Y-3697984D02*
X3796372Y-3497984D01*
X3796372Y-3497984D02*
X3777325Y-3526555D01*
X3777325Y-3526555D02*
X3758277Y-3545603D01*
X3758277Y-3545603D02*
X3739229Y-3555127D01*
X3977325Y-3497984D02*
X3996372Y-3497984D01*
X3996372Y-3497984D02*
X4015420Y-3507508D01*
X4015420Y-3507508D02*
X4024944Y-3517031D01*
X4024944Y-3517031D02*
X4034468Y-3536079D01*
X4034468Y-3536079D02*
X4043991Y-3574174D01*
X4043991Y-3574174D02*
X4043991Y-3621793D01*
X4043991Y-3621793D02*
X4034468Y-3659888D01*
X4034468Y-3659888D02*
X4024944Y-3678936D01*
X4024944Y-3678936D02*
X4015420Y-3688460D01*
X4015420Y-3688460D02*
X3996372Y-3697984D01*
X3996372Y-3697984D02*
X3977325Y-3697984D01*
X3977325Y-3697984D02*
X3958277Y-3688460D01*
X3958277Y-3688460D02*
X3948753Y-3678936D01*
X3948753Y-3678936D02*
X3939229Y-3659888D01*
X3939229Y-3659888D02*
X3929706Y-3621793D01*
X3929706Y-3621793D02*
X3929706Y-3574174D01*
X3929706Y-3574174D02*
X3939229Y-3536079D01*
X3939229Y-3536079D02*
X3948753Y-3517031D01*
X3948753Y-3517031D02*
X3958277Y-3507508D01*
X3958277Y-3507508D02*
X3977325Y-3497984D01*
X4282087Y-3697984D02*
X4282087Y-3497984D01*
X4367801Y-3697984D02*
X4367801Y-3593222D01*
X4367801Y-3593222D02*
X4358277Y-3574174D01*
X4358277Y-3574174D02*
X4339230Y-3564650D01*
X4339230Y-3564650D02*
X4310658Y-3564650D01*
X4310658Y-3564650D02*
X4291611Y-3574174D01*
X4291611Y-3574174D02*
X4282087Y-3583698D01*
X4491611Y-3697984D02*
X4472563Y-3688460D01*
X4472563Y-3688460D02*
X4463039Y-3678936D01*
X4463039Y-3678936D02*
X4453515Y-3659888D01*
X4453515Y-3659888D02*
X4453515Y-3602746D01*
X4453515Y-3602746D02*
X4463039Y-3583698D01*
X4463039Y-3583698D02*
X4472563Y-3574174D01*
X4472563Y-3574174D02*
X4491611Y-3564650D01*
X4491611Y-3564650D02*
X4520182Y-3564650D01*
X4520182Y-3564650D02*
X4539230Y-3574174D01*
X4539230Y-3574174D02*
X4548753Y-3583698D01*
X4548753Y-3583698D02*
X4558277Y-3602746D01*
X4558277Y-3602746D02*
X4558277Y-3659888D01*
X4558277Y-3659888D02*
X4548753Y-3678936D01*
X4548753Y-3678936D02*
X4539230Y-3688460D01*
X4539230Y-3688460D02*
X4520182Y-3697984D01*
X4520182Y-3697984D02*
X4491611Y-3697984D01*
X4672563Y-3697984D02*
X4653515Y-3688460D01*
X4653515Y-3688460D02*
X4643992Y-3669412D01*
X4643992Y-3669412D02*
X4643992Y-3497984D01*
X4824944Y-3688460D02*
X4805896Y-3697984D01*
X4805896Y-3697984D02*
X4767801Y-3697984D01*
X4767801Y-3697984D02*
X4748753Y-3688460D01*
X4748753Y-3688460D02*
X4739230Y-3669412D01*
X4739230Y-3669412D02*
X4739230Y-3593222D01*
X4739230Y-3593222D02*
X4748753Y-3574174D01*
X4748753Y-3574174D02*
X4767801Y-3564650D01*
X4767801Y-3564650D02*
X4805896Y-3564650D01*
X4805896Y-3564650D02*
X4824944Y-3574174D01*
X4824944Y-3574174D02*
X4834468Y-3593222D01*
X4834468Y-3593222D02*
X4834468Y-3612269D01*
X4834468Y-3612269D02*
X4739230Y-3631317D01*
X4910658Y-3688460D02*
X4929706Y-3697984D01*
X4929706Y-3697984D02*
X4967801Y-3697984D01*
X4967801Y-3697984D02*
X4986849Y-3688460D01*
X4986849Y-3688460D02*
X4996373Y-3669412D01*
X4996373Y-3669412D02*
X4996373Y-3659888D01*
X4996373Y-3659888D02*
X4986849Y-3640841D01*
X4986849Y-3640841D02*
X4967801Y-3631317D01*
X4967801Y-3631317D02*
X4939230Y-3631317D01*
X4939230Y-3631317D02*
X4920182Y-3621793D01*
X4920182Y-3621793D02*
X4910658Y-3602746D01*
X4910658Y-3602746D02*
X4910658Y-3593222D01*
X4910658Y-3593222D02*
X4920182Y-3574174D01*
X4920182Y-3574174D02*
X4939230Y-3564650D01*
X4939230Y-3564650D02*
X4967801Y-3564650D01*
X4967801Y-3564650D02*
X4986849Y-3574174D01*
X5063039Y-3774174D02*
X5072563Y-3764650D01*
X5072563Y-3764650D02*
X5091611Y-3736079D01*
X5091611Y-3736079D02*
X5101134Y-3717031D01*
X5101134Y-3717031D02*
X5110658Y-3688460D01*
X5110658Y-3688460D02*
X5120182Y-3640841D01*
X5120182Y-3640841D02*
X5120182Y-3602746D01*
X5120182Y-3602746D02*
X5110658Y-3555127D01*
X5110658Y-3555127D02*
X5101134Y-3526555D01*
X5101134Y-3526555D02*
X5091611Y-3507508D01*
X5091611Y-3507508D02*
X5072563Y-3478936D01*
X5072563Y-3478936D02*
X5063039Y-3469412D01*
D12*
X47500Y-3820500D02*
X47500Y-3920500D01*
X-2500Y-3870500D02*
X97500Y-3870500D01*
D11*
X463039Y-3961984D02*
X348753Y-3961984D01*
X405896Y-3961984D02*
X405896Y-3761984D01*
X405896Y-3761984D02*
X386848Y-3790555D01*
X386848Y-3790555D02*
X367801Y-3809603D01*
X367801Y-3809603D02*
X348753Y-3819127D01*
X548753Y-3942936D02*
X558277Y-3952460D01*
X558277Y-3952460D02*
X548753Y-3961984D01*
X548753Y-3961984D02*
X539229Y-3952460D01*
X539229Y-3952460D02*
X548753Y-3942936D01*
X548753Y-3942936D02*
X548753Y-3961984D01*
X682086Y-3761984D02*
X701134Y-3761984D01*
X701134Y-3761984D02*
X720182Y-3771508D01*
X720182Y-3771508D02*
X729705Y-3781031D01*
X729705Y-3781031D02*
X739229Y-3800079D01*
X739229Y-3800079D02*
X748753Y-3838174D01*
X748753Y-3838174D02*
X748753Y-3885793D01*
X748753Y-3885793D02*
X739229Y-3923888D01*
X739229Y-3923888D02*
X729705Y-3942936D01*
X729705Y-3942936D02*
X720182Y-3952460D01*
X720182Y-3952460D02*
X701134Y-3961984D01*
X701134Y-3961984D02*
X682086Y-3961984D01*
X682086Y-3961984D02*
X663039Y-3952460D01*
X663039Y-3952460D02*
X653515Y-3942936D01*
X653515Y-3942936D02*
X643991Y-3923888D01*
X643991Y-3923888D02*
X634467Y-3885793D01*
X634467Y-3885793D02*
X634467Y-3838174D01*
X634467Y-3838174D02*
X643991Y-3800079D01*
X643991Y-3800079D02*
X653515Y-3781031D01*
X653515Y-3781031D02*
X663039Y-3771508D01*
X663039Y-3771508D02*
X682086Y-3761984D01*
X872562Y-3761984D02*
X891610Y-3761984D01*
X891610Y-3761984D02*
X910658Y-3771508D01*
X910658Y-3771508D02*
X920182Y-3781031D01*
X920182Y-3781031D02*
X929705Y-3800079D01*
X929705Y-3800079D02*
X939229Y-3838174D01*
X939229Y-3838174D02*
X939229Y-3885793D01*
X939229Y-3885793D02*
X929705Y-3923888D01*
X929705Y-3923888D02*
X920182Y-3942936D01*
X920182Y-3942936D02*
X910658Y-3952460D01*
X910658Y-3952460D02*
X891610Y-3961984D01*
X891610Y-3961984D02*
X872562Y-3961984D01*
X872562Y-3961984D02*
X853515Y-3952460D01*
X853515Y-3952460D02*
X843991Y-3942936D01*
X843991Y-3942936D02*
X834467Y-3923888D01*
X834467Y-3923888D02*
X824943Y-3885793D01*
X824943Y-3885793D02*
X824943Y-3838174D01*
X824943Y-3838174D02*
X834467Y-3800079D01*
X834467Y-3800079D02*
X843991Y-3781031D01*
X843991Y-3781031D02*
X853515Y-3771508D01*
X853515Y-3771508D02*
X872562Y-3761984D01*
X1063039Y-3761984D02*
X1082086Y-3761984D01*
X1082086Y-3761984D02*
X1101134Y-3771508D01*
X1101134Y-3771508D02*
X1110658Y-3781031D01*
X1110658Y-3781031D02*
X1120182Y-3800079D01*
X1120182Y-3800079D02*
X1129705Y-3838174D01*
X1129705Y-3838174D02*
X1129705Y-3885793D01*
X1129705Y-3885793D02*
X1120182Y-3923888D01*
X1120182Y-3923888D02*
X1110658Y-3942936D01*
X1110658Y-3942936D02*
X1101134Y-3952460D01*
X1101134Y-3952460D02*
X1082086Y-3961984D01*
X1082086Y-3961984D02*
X1063039Y-3961984D01*
X1063039Y-3961984D02*
X1043991Y-3952460D01*
X1043991Y-3952460D02*
X1034467Y-3942936D01*
X1034467Y-3942936D02*
X1024943Y-3923888D01*
X1024943Y-3923888D02*
X1015420Y-3885793D01*
X1015420Y-3885793D02*
X1015420Y-3838174D01*
X1015420Y-3838174D02*
X1024943Y-3800079D01*
X1024943Y-3800079D02*
X1034467Y-3781031D01*
X1034467Y-3781031D02*
X1043991Y-3771508D01*
X1043991Y-3771508D02*
X1063039Y-3761984D01*
X1215420Y-3961984D02*
X1215420Y-3828650D01*
X1215420Y-3847698D02*
X1224944Y-3838174D01*
X1224944Y-3838174D02*
X1243991Y-3828650D01*
X1243991Y-3828650D02*
X1272563Y-3828650D01*
X1272563Y-3828650D02*
X1291610Y-3838174D01*
X1291610Y-3838174D02*
X1301134Y-3857222D01*
X1301134Y-3857222D02*
X1301134Y-3961984D01*
X1301134Y-3857222D02*
X1310658Y-3838174D01*
X1310658Y-3838174D02*
X1329705Y-3828650D01*
X1329705Y-3828650D02*
X1358277Y-3828650D01*
X1358277Y-3828650D02*
X1377325Y-3838174D01*
X1377325Y-3838174D02*
X1386848Y-3857222D01*
X1386848Y-3857222D02*
X1386848Y-3961984D01*
X1482086Y-3961984D02*
X1482086Y-3828650D01*
X1482086Y-3847698D02*
X1491610Y-3838174D01*
X1491610Y-3838174D02*
X1510658Y-3828650D01*
X1510658Y-3828650D02*
X1539229Y-3828650D01*
X1539229Y-3828650D02*
X1558277Y-3838174D01*
X1558277Y-3838174D02*
X1567801Y-3857222D01*
X1567801Y-3857222D02*
X1567801Y-3961984D01*
X1567801Y-3857222D02*
X1577324Y-3838174D01*
X1577324Y-3838174D02*
X1596372Y-3828650D01*
X1596372Y-3828650D02*
X1624943Y-3828650D01*
X1624943Y-3828650D02*
X1643991Y-3838174D01*
X1643991Y-3838174D02*
X1653515Y-3857222D01*
X1653515Y-3857222D02*
X1653515Y-3961984D01*
X2043991Y-3752460D02*
X1872563Y-4009603D01*
X2301134Y-3761984D02*
X2320182Y-3761984D01*
X2320182Y-3761984D02*
X2339229Y-3771508D01*
X2339229Y-3771508D02*
X2348753Y-3781031D01*
X2348753Y-3781031D02*
X2358277Y-3800079D01*
X2358277Y-3800079D02*
X2367801Y-3838174D01*
X2367801Y-3838174D02*
X2367801Y-3885793D01*
X2367801Y-3885793D02*
X2358277Y-3923888D01*
X2358277Y-3923888D02*
X2348753Y-3942936D01*
X2348753Y-3942936D02*
X2339229Y-3952460D01*
X2339229Y-3952460D02*
X2320182Y-3961984D01*
X2320182Y-3961984D02*
X2301134Y-3961984D01*
X2301134Y-3961984D02*
X2282087Y-3952460D01*
X2282087Y-3952460D02*
X2272563Y-3942936D01*
X2272563Y-3942936D02*
X2263039Y-3923888D01*
X2263039Y-3923888D02*
X2253515Y-3885793D01*
X2253515Y-3885793D02*
X2253515Y-3838174D01*
X2253515Y-3838174D02*
X2263039Y-3800079D01*
X2263039Y-3800079D02*
X2272563Y-3781031D01*
X2272563Y-3781031D02*
X2282087Y-3771508D01*
X2282087Y-3771508D02*
X2301134Y-3761984D01*
X2453515Y-3942936D02*
X2463039Y-3952460D01*
X2463039Y-3952460D02*
X2453515Y-3961984D01*
X2453515Y-3961984D02*
X2443991Y-3952460D01*
X2443991Y-3952460D02*
X2453515Y-3942936D01*
X2453515Y-3942936D02*
X2453515Y-3961984D01*
X2586848Y-3761984D02*
X2605896Y-3761984D01*
X2605896Y-3761984D02*
X2624944Y-3771508D01*
X2624944Y-3771508D02*
X2634468Y-3781031D01*
X2634468Y-3781031D02*
X2643991Y-3800079D01*
X2643991Y-3800079D02*
X2653515Y-3838174D01*
X2653515Y-3838174D02*
X2653515Y-3885793D01*
X2653515Y-3885793D02*
X2643991Y-3923888D01*
X2643991Y-3923888D02*
X2634468Y-3942936D01*
X2634468Y-3942936D02*
X2624944Y-3952460D01*
X2624944Y-3952460D02*
X2605896Y-3961984D01*
X2605896Y-3961984D02*
X2586848Y-3961984D01*
X2586848Y-3961984D02*
X2567801Y-3952460D01*
X2567801Y-3952460D02*
X2558277Y-3942936D01*
X2558277Y-3942936D02*
X2548753Y-3923888D01*
X2548753Y-3923888D02*
X2539229Y-3885793D01*
X2539229Y-3885793D02*
X2539229Y-3838174D01*
X2539229Y-3838174D02*
X2548753Y-3800079D01*
X2548753Y-3800079D02*
X2558277Y-3781031D01*
X2558277Y-3781031D02*
X2567801Y-3771508D01*
X2567801Y-3771508D02*
X2586848Y-3761984D01*
X2720182Y-3761984D02*
X2843991Y-3761984D01*
X2843991Y-3761984D02*
X2777325Y-3838174D01*
X2777325Y-3838174D02*
X2805896Y-3838174D01*
X2805896Y-3838174D02*
X2824944Y-3847698D01*
X2824944Y-3847698D02*
X2834467Y-3857222D01*
X2834467Y-3857222D02*
X2843991Y-3876269D01*
X2843991Y-3876269D02*
X2843991Y-3923888D01*
X2843991Y-3923888D02*
X2834467Y-3942936D01*
X2834467Y-3942936D02*
X2824944Y-3952460D01*
X2824944Y-3952460D02*
X2805896Y-3961984D01*
X2805896Y-3961984D02*
X2748753Y-3961984D01*
X2748753Y-3961984D02*
X2729706Y-3952460D01*
X2729706Y-3952460D02*
X2720182Y-3942936D01*
X2939229Y-3961984D02*
X2977325Y-3961984D01*
X2977325Y-3961984D02*
X2996372Y-3952460D01*
X2996372Y-3952460D02*
X3005896Y-3942936D01*
X3005896Y-3942936D02*
X3024944Y-3914365D01*
X3024944Y-3914365D02*
X3034467Y-3876269D01*
X3034467Y-3876269D02*
X3034467Y-3800079D01*
X3034467Y-3800079D02*
X3024944Y-3781031D01*
X3024944Y-3781031D02*
X3015420Y-3771508D01*
X3015420Y-3771508D02*
X2996372Y-3761984D01*
X2996372Y-3761984D02*
X2958277Y-3761984D01*
X2958277Y-3761984D02*
X2939229Y-3771508D01*
X2939229Y-3771508D02*
X2929706Y-3781031D01*
X2929706Y-3781031D02*
X2920182Y-3800079D01*
X2920182Y-3800079D02*
X2920182Y-3847698D01*
X2920182Y-3847698D02*
X2929706Y-3866746D01*
X2929706Y-3866746D02*
X2939229Y-3876269D01*
X2939229Y-3876269D02*
X2958277Y-3885793D01*
X2958277Y-3885793D02*
X2996372Y-3885793D01*
X2996372Y-3885793D02*
X3015420Y-3876269D01*
X3015420Y-3876269D02*
X3024944Y-3866746D01*
X3024944Y-3866746D02*
X3034467Y-3847698D01*
X3205896Y-3828650D02*
X3205896Y-3961984D01*
X3158277Y-3752460D02*
X3110658Y-3895317D01*
X3110658Y-3895317D02*
X3234467Y-3895317D01*
X3301134Y-3761984D02*
X3301134Y-3800079D01*
X3377325Y-3761984D02*
X3377325Y-3800079D01*
X3672563Y-4038174D02*
X3663039Y-4028650D01*
X3663039Y-4028650D02*
X3643991Y-4000079D01*
X3643991Y-4000079D02*
X3634468Y-3981031D01*
X3634468Y-3981031D02*
X3624944Y-3952460D01*
X3624944Y-3952460D02*
X3615420Y-3904841D01*
X3615420Y-3904841D02*
X3615420Y-3866746D01*
X3615420Y-3866746D02*
X3624944Y-3819127D01*
X3624944Y-3819127D02*
X3634468Y-3790555D01*
X3634468Y-3790555D02*
X3643991Y-3771508D01*
X3643991Y-3771508D02*
X3663039Y-3742936D01*
X3663039Y-3742936D02*
X3672563Y-3733412D01*
X3834468Y-3761984D02*
X3796372Y-3761984D01*
X3796372Y-3761984D02*
X3777325Y-3771508D01*
X3777325Y-3771508D02*
X3767801Y-3781031D01*
X3767801Y-3781031D02*
X3748753Y-3809603D01*
X3748753Y-3809603D02*
X3739229Y-3847698D01*
X3739229Y-3847698D02*
X3739229Y-3923888D01*
X3739229Y-3923888D02*
X3748753Y-3942936D01*
X3748753Y-3942936D02*
X3758277Y-3952460D01*
X3758277Y-3952460D02*
X3777325Y-3961984D01*
X3777325Y-3961984D02*
X3815420Y-3961984D01*
X3815420Y-3961984D02*
X3834468Y-3952460D01*
X3834468Y-3952460D02*
X3843991Y-3942936D01*
X3843991Y-3942936D02*
X3853515Y-3923888D01*
X3853515Y-3923888D02*
X3853515Y-3876269D01*
X3853515Y-3876269D02*
X3843991Y-3857222D01*
X3843991Y-3857222D02*
X3834468Y-3847698D01*
X3834468Y-3847698D02*
X3815420Y-3838174D01*
X3815420Y-3838174D02*
X3777325Y-3838174D01*
X3777325Y-3838174D02*
X3758277Y-3847698D01*
X3758277Y-3847698D02*
X3748753Y-3857222D01*
X3748753Y-3857222D02*
X3739229Y-3876269D01*
X4091610Y-3961984D02*
X4091610Y-3761984D01*
X4177325Y-3961984D02*
X4177325Y-3857222D01*
X4177325Y-3857222D02*
X4167801Y-3838174D01*
X4167801Y-3838174D02*
X4148753Y-3828650D01*
X4148753Y-3828650D02*
X4120182Y-3828650D01*
X4120182Y-3828650D02*
X4101134Y-3838174D01*
X4101134Y-3838174D02*
X4091610Y-3847698D01*
X4301134Y-3961984D02*
X4282087Y-3952460D01*
X4282087Y-3952460D02*
X4272563Y-3942936D01*
X4272563Y-3942936D02*
X4263039Y-3923888D01*
X4263039Y-3923888D02*
X4263039Y-3866746D01*
X4263039Y-3866746D02*
X4272563Y-3847698D01*
X4272563Y-3847698D02*
X4282087Y-3838174D01*
X4282087Y-3838174D02*
X4301134Y-3828650D01*
X4301134Y-3828650D02*
X4329706Y-3828650D01*
X4329706Y-3828650D02*
X4348753Y-3838174D01*
X4348753Y-3838174D02*
X4358277Y-3847698D01*
X4358277Y-3847698D02*
X4367801Y-3866746D01*
X4367801Y-3866746D02*
X4367801Y-3923888D01*
X4367801Y-3923888D02*
X4358277Y-3942936D01*
X4358277Y-3942936D02*
X4348753Y-3952460D01*
X4348753Y-3952460D02*
X4329706Y-3961984D01*
X4329706Y-3961984D02*
X4301134Y-3961984D01*
X4482087Y-3961984D02*
X4463039Y-3952460D01*
X4463039Y-3952460D02*
X4453515Y-3933412D01*
X4453515Y-3933412D02*
X4453515Y-3761984D01*
X4634468Y-3952460D02*
X4615420Y-3961984D01*
X4615420Y-3961984D02*
X4577325Y-3961984D01*
X4577325Y-3961984D02*
X4558277Y-3952460D01*
X4558277Y-3952460D02*
X4548753Y-3933412D01*
X4548753Y-3933412D02*
X4548753Y-3857222D01*
X4548753Y-3857222D02*
X4558277Y-3838174D01*
X4558277Y-3838174D02*
X4577325Y-3828650D01*
X4577325Y-3828650D02*
X4615420Y-3828650D01*
X4615420Y-3828650D02*
X4634468Y-3838174D01*
X4634468Y-3838174D02*
X4643992Y-3857222D01*
X4643992Y-3857222D02*
X4643992Y-3876269D01*
X4643992Y-3876269D02*
X4548753Y-3895317D01*
X4720182Y-3952460D02*
X4739230Y-3961984D01*
X4739230Y-3961984D02*
X4777325Y-3961984D01*
X4777325Y-3961984D02*
X4796373Y-3952460D01*
X4796373Y-3952460D02*
X4805896Y-3933412D01*
X4805896Y-3933412D02*
X4805896Y-3923888D01*
X4805896Y-3923888D02*
X4796373Y-3904841D01*
X4796373Y-3904841D02*
X4777325Y-3895317D01*
X4777325Y-3895317D02*
X4748753Y-3895317D01*
X4748753Y-3895317D02*
X4729706Y-3885793D01*
X4729706Y-3885793D02*
X4720182Y-3866746D01*
X4720182Y-3866746D02*
X4720182Y-3857222D01*
X4720182Y-3857222D02*
X4729706Y-3838174D01*
X4729706Y-3838174D02*
X4748753Y-3828650D01*
X4748753Y-3828650D02*
X4777325Y-3828650D01*
X4777325Y-3828650D02*
X4796373Y-3838174D01*
X4872563Y-4038174D02*
X4882087Y-4028650D01*
X4882087Y-4028650D02*
X4901134Y-4000079D01*
X4901134Y-4000079D02*
X4910658Y-3981031D01*
X4910658Y-3981031D02*
X4920182Y-3952460D01*
X4920182Y-3952460D02*
X4929706Y-3904841D01*
X4929706Y-3904841D02*
X4929706Y-3866746D01*
X4929706Y-3866746D02*
X4920182Y-3819127D01*
X4920182Y-3819127D02*
X4910658Y-3790555D01*
X4910658Y-3790555D02*
X4901134Y-3771508D01*
X4901134Y-3771508D02*
X4882087Y-3742936D01*
X4882087Y-3742936D02*
X4872563Y-3733412D01*
M02*
