%TF.GenerationSoftware,KiCad,Pcbnew,8.0.5*%
%TF.CreationDate,2024-09-19T16:10:43+02:00*%
%TF.ProjectId,escon-carrier-board,6573636f-6e2d-4636-9172-726965722d62,rev?*%
%TF.SameCoordinates,Original*%
%TF.FileFunction,Drillmap*%
%TF.FilePolarity,Positive*%
%FSLAX45Y45*%
G04 Gerber Fmt 4.5, Leading zero omitted, Abs format (unit mm)*
G04 Created by KiCad (PCBNEW 8.0.5) date 2024-09-19 16:10:43*
%MOMM*%
%LPD*%
G01*
G04 APERTURE LIST*
%ADD10C,0.050000*%
%ADD11C,0.200000*%
%ADD12C,0.150000*%
G04 APERTURE END LIST*
D10*
X300000Y-1100000D02*
X100000Y-1100000D01*
X300000Y-1100000D02*
X300000Y-1600000D01*
X3500000Y-1600000D02*
X3500000Y-2700000D01*
X100000Y0D02*
X100000Y-1100000D01*
X3300000Y-1100000D02*
X3500000Y-1100000D01*
X100000Y-2700000D02*
X3500000Y-2700000D01*
X3500000Y0D02*
X3500000Y-1100000D01*
X300000Y-1600000D02*
X100000Y-1600000D01*
X3500000Y0D02*
X100000Y0D01*
X3300000Y-1100000D02*
X3300000Y-1600000D01*
X100000Y-1600000D02*
X100000Y-2700000D01*
X3500000Y-1600000D02*
X3300000Y-1600000D01*
D11*
D12*
X1476500Y-857000D02*
X1626500Y-1007000D01*
X1626500Y-857000D02*
X1476500Y-1007000D01*
D11*
X358277Y-3013984D02*
X358277Y-2813984D01*
X358277Y-2813984D02*
X405896Y-2813984D01*
X405896Y-2813984D02*
X434467Y-2823508D01*
X434467Y-2823508D02*
X453515Y-2842555D01*
X453515Y-2842555D02*
X463039Y-2861603D01*
X463039Y-2861603D02*
X472562Y-2899698D01*
X472562Y-2899698D02*
X472562Y-2928269D01*
X472562Y-2928269D02*
X463039Y-2966365D01*
X463039Y-2966365D02*
X453515Y-2985412D01*
X453515Y-2985412D02*
X434467Y-3004460D01*
X434467Y-3004460D02*
X405896Y-3013984D01*
X405896Y-3013984D02*
X358277Y-3013984D01*
X558277Y-3013984D02*
X558277Y-2880650D01*
X558277Y-2918746D02*
X567801Y-2899698D01*
X567801Y-2899698D02*
X577324Y-2890174D01*
X577324Y-2890174D02*
X596372Y-2880650D01*
X596372Y-2880650D02*
X615420Y-2880650D01*
X682086Y-3013984D02*
X682086Y-2880650D01*
X682086Y-2813984D02*
X672563Y-2823508D01*
X672563Y-2823508D02*
X682086Y-2833031D01*
X682086Y-2833031D02*
X691610Y-2823508D01*
X691610Y-2823508D02*
X682086Y-2813984D01*
X682086Y-2813984D02*
X682086Y-2833031D01*
X805896Y-3013984D02*
X786848Y-3004460D01*
X786848Y-3004460D02*
X777324Y-2985412D01*
X777324Y-2985412D02*
X777324Y-2813984D01*
X910658Y-3013984D02*
X891610Y-3004460D01*
X891610Y-3004460D02*
X882086Y-2985412D01*
X882086Y-2985412D02*
X882086Y-2813984D01*
X1139229Y-3013984D02*
X1139229Y-2813984D01*
X1139229Y-2813984D02*
X1205896Y-2956841D01*
X1205896Y-2956841D02*
X1272563Y-2813984D01*
X1272563Y-2813984D02*
X1272563Y-3013984D01*
X1453515Y-3013984D02*
X1453515Y-2909222D01*
X1453515Y-2909222D02*
X1443991Y-2890174D01*
X1443991Y-2890174D02*
X1424943Y-2880650D01*
X1424943Y-2880650D02*
X1386848Y-2880650D01*
X1386848Y-2880650D02*
X1367801Y-2890174D01*
X1453515Y-3004460D02*
X1434467Y-3013984D01*
X1434467Y-3013984D02*
X1386848Y-3013984D01*
X1386848Y-3013984D02*
X1367801Y-3004460D01*
X1367801Y-3004460D02*
X1358277Y-2985412D01*
X1358277Y-2985412D02*
X1358277Y-2966365D01*
X1358277Y-2966365D02*
X1367801Y-2947317D01*
X1367801Y-2947317D02*
X1386848Y-2937793D01*
X1386848Y-2937793D02*
X1434467Y-2937793D01*
X1434467Y-2937793D02*
X1453515Y-2928269D01*
X1548753Y-2880650D02*
X1548753Y-3080650D01*
X1548753Y-2890174D02*
X1567801Y-2880650D01*
X1567801Y-2880650D02*
X1605896Y-2880650D01*
X1605896Y-2880650D02*
X1624943Y-2890174D01*
X1624943Y-2890174D02*
X1634467Y-2899698D01*
X1634467Y-2899698D02*
X1643991Y-2918746D01*
X1643991Y-2918746D02*
X1643991Y-2975888D01*
X1643991Y-2975888D02*
X1634467Y-2994936D01*
X1634467Y-2994936D02*
X1624943Y-3004460D01*
X1624943Y-3004460D02*
X1605896Y-3013984D01*
X1605896Y-3013984D02*
X1567801Y-3013984D01*
X1567801Y-3013984D02*
X1548753Y-3004460D01*
X1729705Y-2994936D02*
X1739229Y-3004460D01*
X1739229Y-3004460D02*
X1729705Y-3013984D01*
X1729705Y-3013984D02*
X1720182Y-3004460D01*
X1720182Y-3004460D02*
X1729705Y-2994936D01*
X1729705Y-2994936D02*
X1729705Y-3013984D01*
X1729705Y-2890174D02*
X1739229Y-2899698D01*
X1739229Y-2899698D02*
X1729705Y-2909222D01*
X1729705Y-2909222D02*
X1720182Y-2899698D01*
X1720182Y-2899698D02*
X1729705Y-2890174D01*
X1729705Y-2890174D02*
X1729705Y-2909222D01*
D12*
X-52500Y-3267500D02*
X97500Y-3417500D01*
X97500Y-3267500D02*
X-52500Y-3417500D01*
D11*
X463039Y-3433984D02*
X348753Y-3433984D01*
X405896Y-3433984D02*
X405896Y-3233984D01*
X405896Y-3233984D02*
X386848Y-3262555D01*
X386848Y-3262555D02*
X367801Y-3281603D01*
X367801Y-3281603D02*
X348753Y-3291127D01*
X548753Y-3414936D02*
X558277Y-3424460D01*
X558277Y-3424460D02*
X548753Y-3433984D01*
X548753Y-3433984D02*
X539229Y-3424460D01*
X539229Y-3424460D02*
X548753Y-3414936D01*
X548753Y-3414936D02*
X548753Y-3433984D01*
X739229Y-3233984D02*
X643991Y-3233984D01*
X643991Y-3233984D02*
X634467Y-3329222D01*
X634467Y-3329222D02*
X643991Y-3319698D01*
X643991Y-3319698D02*
X663039Y-3310174D01*
X663039Y-3310174D02*
X710658Y-3310174D01*
X710658Y-3310174D02*
X729705Y-3319698D01*
X729705Y-3319698D02*
X739229Y-3329222D01*
X739229Y-3329222D02*
X748753Y-3348269D01*
X748753Y-3348269D02*
X748753Y-3395888D01*
X748753Y-3395888D02*
X739229Y-3414936D01*
X739229Y-3414936D02*
X729705Y-3424460D01*
X729705Y-3424460D02*
X710658Y-3433984D01*
X710658Y-3433984D02*
X663039Y-3433984D01*
X663039Y-3433984D02*
X643991Y-3424460D01*
X643991Y-3424460D02*
X634467Y-3414936D01*
X872562Y-3233984D02*
X891610Y-3233984D01*
X891610Y-3233984D02*
X910658Y-3243508D01*
X910658Y-3243508D02*
X920182Y-3253031D01*
X920182Y-3253031D02*
X929705Y-3272079D01*
X929705Y-3272079D02*
X939229Y-3310174D01*
X939229Y-3310174D02*
X939229Y-3357793D01*
X939229Y-3357793D02*
X929705Y-3395888D01*
X929705Y-3395888D02*
X920182Y-3414936D01*
X920182Y-3414936D02*
X910658Y-3424460D01*
X910658Y-3424460D02*
X891610Y-3433984D01*
X891610Y-3433984D02*
X872562Y-3433984D01*
X872562Y-3433984D02*
X853515Y-3424460D01*
X853515Y-3424460D02*
X843991Y-3414936D01*
X843991Y-3414936D02*
X834467Y-3395888D01*
X834467Y-3395888D02*
X824943Y-3357793D01*
X824943Y-3357793D02*
X824943Y-3310174D01*
X824943Y-3310174D02*
X834467Y-3272079D01*
X834467Y-3272079D02*
X843991Y-3253031D01*
X843991Y-3253031D02*
X853515Y-3243508D01*
X853515Y-3243508D02*
X872562Y-3233984D01*
X1063039Y-3233984D02*
X1082086Y-3233984D01*
X1082086Y-3233984D02*
X1101134Y-3243508D01*
X1101134Y-3243508D02*
X1110658Y-3253031D01*
X1110658Y-3253031D02*
X1120182Y-3272079D01*
X1120182Y-3272079D02*
X1129705Y-3310174D01*
X1129705Y-3310174D02*
X1129705Y-3357793D01*
X1129705Y-3357793D02*
X1120182Y-3395888D01*
X1120182Y-3395888D02*
X1110658Y-3414936D01*
X1110658Y-3414936D02*
X1101134Y-3424460D01*
X1101134Y-3424460D02*
X1082086Y-3433984D01*
X1082086Y-3433984D02*
X1063039Y-3433984D01*
X1063039Y-3433984D02*
X1043991Y-3424460D01*
X1043991Y-3424460D02*
X1034467Y-3414936D01*
X1034467Y-3414936D02*
X1024943Y-3395888D01*
X1024943Y-3395888D02*
X1015420Y-3357793D01*
X1015420Y-3357793D02*
X1015420Y-3310174D01*
X1015420Y-3310174D02*
X1024943Y-3272079D01*
X1024943Y-3272079D02*
X1034467Y-3253031D01*
X1034467Y-3253031D02*
X1043991Y-3243508D01*
X1043991Y-3243508D02*
X1063039Y-3233984D01*
X1215420Y-3433984D02*
X1215420Y-3300650D01*
X1215420Y-3319698D02*
X1224944Y-3310174D01*
X1224944Y-3310174D02*
X1243991Y-3300650D01*
X1243991Y-3300650D02*
X1272563Y-3300650D01*
X1272563Y-3300650D02*
X1291610Y-3310174D01*
X1291610Y-3310174D02*
X1301134Y-3329222D01*
X1301134Y-3329222D02*
X1301134Y-3433984D01*
X1301134Y-3329222D02*
X1310658Y-3310174D01*
X1310658Y-3310174D02*
X1329705Y-3300650D01*
X1329705Y-3300650D02*
X1358277Y-3300650D01*
X1358277Y-3300650D02*
X1377325Y-3310174D01*
X1377325Y-3310174D02*
X1386848Y-3329222D01*
X1386848Y-3329222D02*
X1386848Y-3433984D01*
X1482086Y-3433984D02*
X1482086Y-3300650D01*
X1482086Y-3319698D02*
X1491610Y-3310174D01*
X1491610Y-3310174D02*
X1510658Y-3300650D01*
X1510658Y-3300650D02*
X1539229Y-3300650D01*
X1539229Y-3300650D02*
X1558277Y-3310174D01*
X1558277Y-3310174D02*
X1567801Y-3329222D01*
X1567801Y-3329222D02*
X1567801Y-3433984D01*
X1567801Y-3329222D02*
X1577324Y-3310174D01*
X1577324Y-3310174D02*
X1596372Y-3300650D01*
X1596372Y-3300650D02*
X1624943Y-3300650D01*
X1624943Y-3300650D02*
X1643991Y-3310174D01*
X1643991Y-3310174D02*
X1653515Y-3329222D01*
X1653515Y-3329222D02*
X1653515Y-3433984D01*
X2043991Y-3224460D02*
X1872563Y-3481603D01*
X2301134Y-3233984D02*
X2320182Y-3233984D01*
X2320182Y-3233984D02*
X2339229Y-3243508D01*
X2339229Y-3243508D02*
X2348753Y-3253031D01*
X2348753Y-3253031D02*
X2358277Y-3272079D01*
X2358277Y-3272079D02*
X2367801Y-3310174D01*
X2367801Y-3310174D02*
X2367801Y-3357793D01*
X2367801Y-3357793D02*
X2358277Y-3395888D01*
X2358277Y-3395888D02*
X2348753Y-3414936D01*
X2348753Y-3414936D02*
X2339229Y-3424460D01*
X2339229Y-3424460D02*
X2320182Y-3433984D01*
X2320182Y-3433984D02*
X2301134Y-3433984D01*
X2301134Y-3433984D02*
X2282087Y-3424460D01*
X2282087Y-3424460D02*
X2272563Y-3414936D01*
X2272563Y-3414936D02*
X2263039Y-3395888D01*
X2263039Y-3395888D02*
X2253515Y-3357793D01*
X2253515Y-3357793D02*
X2253515Y-3310174D01*
X2253515Y-3310174D02*
X2263039Y-3272079D01*
X2263039Y-3272079D02*
X2272563Y-3253031D01*
X2272563Y-3253031D02*
X2282087Y-3243508D01*
X2282087Y-3243508D02*
X2301134Y-3233984D01*
X2453515Y-3414936D02*
X2463039Y-3424460D01*
X2463039Y-3424460D02*
X2453515Y-3433984D01*
X2453515Y-3433984D02*
X2443991Y-3424460D01*
X2443991Y-3424460D02*
X2453515Y-3414936D01*
X2453515Y-3414936D02*
X2453515Y-3433984D01*
X2586848Y-3233984D02*
X2605896Y-3233984D01*
X2605896Y-3233984D02*
X2624944Y-3243508D01*
X2624944Y-3243508D02*
X2634468Y-3253031D01*
X2634468Y-3253031D02*
X2643991Y-3272079D01*
X2643991Y-3272079D02*
X2653515Y-3310174D01*
X2653515Y-3310174D02*
X2653515Y-3357793D01*
X2653515Y-3357793D02*
X2643991Y-3395888D01*
X2643991Y-3395888D02*
X2634468Y-3414936D01*
X2634468Y-3414936D02*
X2624944Y-3424460D01*
X2624944Y-3424460D02*
X2605896Y-3433984D01*
X2605896Y-3433984D02*
X2586848Y-3433984D01*
X2586848Y-3433984D02*
X2567801Y-3424460D01*
X2567801Y-3424460D02*
X2558277Y-3414936D01*
X2558277Y-3414936D02*
X2548753Y-3395888D01*
X2548753Y-3395888D02*
X2539229Y-3357793D01*
X2539229Y-3357793D02*
X2539229Y-3310174D01*
X2539229Y-3310174D02*
X2548753Y-3272079D01*
X2548753Y-3272079D02*
X2558277Y-3253031D01*
X2558277Y-3253031D02*
X2567801Y-3243508D01*
X2567801Y-3243508D02*
X2586848Y-3233984D01*
X2834467Y-3233984D02*
X2739229Y-3233984D01*
X2739229Y-3233984D02*
X2729706Y-3329222D01*
X2729706Y-3329222D02*
X2739229Y-3319698D01*
X2739229Y-3319698D02*
X2758277Y-3310174D01*
X2758277Y-3310174D02*
X2805896Y-3310174D01*
X2805896Y-3310174D02*
X2824944Y-3319698D01*
X2824944Y-3319698D02*
X2834467Y-3329222D01*
X2834467Y-3329222D02*
X2843991Y-3348269D01*
X2843991Y-3348269D02*
X2843991Y-3395888D01*
X2843991Y-3395888D02*
X2834467Y-3414936D01*
X2834467Y-3414936D02*
X2824944Y-3424460D01*
X2824944Y-3424460D02*
X2805896Y-3433984D01*
X2805896Y-3433984D02*
X2758277Y-3433984D01*
X2758277Y-3433984D02*
X2739229Y-3424460D01*
X2739229Y-3424460D02*
X2729706Y-3414936D01*
X2939229Y-3433984D02*
X2977325Y-3433984D01*
X2977325Y-3433984D02*
X2996372Y-3424460D01*
X2996372Y-3424460D02*
X3005896Y-3414936D01*
X3005896Y-3414936D02*
X3024944Y-3386365D01*
X3024944Y-3386365D02*
X3034467Y-3348269D01*
X3034467Y-3348269D02*
X3034467Y-3272079D01*
X3034467Y-3272079D02*
X3024944Y-3253031D01*
X3024944Y-3253031D02*
X3015420Y-3243508D01*
X3015420Y-3243508D02*
X2996372Y-3233984D01*
X2996372Y-3233984D02*
X2958277Y-3233984D01*
X2958277Y-3233984D02*
X2939229Y-3243508D01*
X2939229Y-3243508D02*
X2929706Y-3253031D01*
X2929706Y-3253031D02*
X2920182Y-3272079D01*
X2920182Y-3272079D02*
X2920182Y-3319698D01*
X2920182Y-3319698D02*
X2929706Y-3338746D01*
X2929706Y-3338746D02*
X2939229Y-3348269D01*
X2939229Y-3348269D02*
X2958277Y-3357793D01*
X2958277Y-3357793D02*
X2996372Y-3357793D01*
X2996372Y-3357793D02*
X3015420Y-3348269D01*
X3015420Y-3348269D02*
X3024944Y-3338746D01*
X3024944Y-3338746D02*
X3034467Y-3319698D01*
X3224944Y-3433984D02*
X3110658Y-3433984D01*
X3167801Y-3433984D02*
X3167801Y-3233984D01*
X3167801Y-3233984D02*
X3148753Y-3262555D01*
X3148753Y-3262555D02*
X3129706Y-3281603D01*
X3129706Y-3281603D02*
X3110658Y-3291127D01*
X3301134Y-3233984D02*
X3301134Y-3272079D01*
X3377325Y-3233984D02*
X3377325Y-3272079D01*
X3672563Y-3510174D02*
X3663039Y-3500650D01*
X3663039Y-3500650D02*
X3643991Y-3472079D01*
X3643991Y-3472079D02*
X3634468Y-3453031D01*
X3634468Y-3453031D02*
X3624944Y-3424460D01*
X3624944Y-3424460D02*
X3615420Y-3376841D01*
X3615420Y-3376841D02*
X3615420Y-3338746D01*
X3615420Y-3338746D02*
X3624944Y-3291127D01*
X3624944Y-3291127D02*
X3634468Y-3262555D01*
X3634468Y-3262555D02*
X3643991Y-3243508D01*
X3643991Y-3243508D02*
X3663039Y-3214936D01*
X3663039Y-3214936D02*
X3672563Y-3205412D01*
X3853515Y-3433984D02*
X3739229Y-3433984D01*
X3796372Y-3433984D02*
X3796372Y-3233984D01*
X3796372Y-3233984D02*
X3777325Y-3262555D01*
X3777325Y-3262555D02*
X3758277Y-3281603D01*
X3758277Y-3281603D02*
X3739229Y-3291127D01*
X4091610Y-3433984D02*
X4091610Y-3233984D01*
X4177325Y-3433984D02*
X4177325Y-3329222D01*
X4177325Y-3329222D02*
X4167801Y-3310174D01*
X4167801Y-3310174D02*
X4148753Y-3300650D01*
X4148753Y-3300650D02*
X4120182Y-3300650D01*
X4120182Y-3300650D02*
X4101134Y-3310174D01*
X4101134Y-3310174D02*
X4091610Y-3319698D01*
X4301134Y-3433984D02*
X4282087Y-3424460D01*
X4282087Y-3424460D02*
X4272563Y-3414936D01*
X4272563Y-3414936D02*
X4263039Y-3395888D01*
X4263039Y-3395888D02*
X4263039Y-3338746D01*
X4263039Y-3338746D02*
X4272563Y-3319698D01*
X4272563Y-3319698D02*
X4282087Y-3310174D01*
X4282087Y-3310174D02*
X4301134Y-3300650D01*
X4301134Y-3300650D02*
X4329706Y-3300650D01*
X4329706Y-3300650D02*
X4348753Y-3310174D01*
X4348753Y-3310174D02*
X4358277Y-3319698D01*
X4358277Y-3319698D02*
X4367801Y-3338746D01*
X4367801Y-3338746D02*
X4367801Y-3395888D01*
X4367801Y-3395888D02*
X4358277Y-3414936D01*
X4358277Y-3414936D02*
X4348753Y-3424460D01*
X4348753Y-3424460D02*
X4329706Y-3433984D01*
X4329706Y-3433984D02*
X4301134Y-3433984D01*
X4482087Y-3433984D02*
X4463039Y-3424460D01*
X4463039Y-3424460D02*
X4453515Y-3405412D01*
X4453515Y-3405412D02*
X4453515Y-3233984D01*
X4634468Y-3424460D02*
X4615420Y-3433984D01*
X4615420Y-3433984D02*
X4577325Y-3433984D01*
X4577325Y-3433984D02*
X4558277Y-3424460D01*
X4558277Y-3424460D02*
X4548753Y-3405412D01*
X4548753Y-3405412D02*
X4548753Y-3329222D01*
X4548753Y-3329222D02*
X4558277Y-3310174D01*
X4558277Y-3310174D02*
X4577325Y-3300650D01*
X4577325Y-3300650D02*
X4615420Y-3300650D01*
X4615420Y-3300650D02*
X4634468Y-3310174D01*
X4634468Y-3310174D02*
X4643992Y-3329222D01*
X4643992Y-3329222D02*
X4643992Y-3348269D01*
X4643992Y-3348269D02*
X4548753Y-3367317D01*
X4710658Y-3510174D02*
X4720182Y-3500650D01*
X4720182Y-3500650D02*
X4739230Y-3472079D01*
X4739230Y-3472079D02*
X4748753Y-3453031D01*
X4748753Y-3453031D02*
X4758277Y-3424460D01*
X4758277Y-3424460D02*
X4767801Y-3376841D01*
X4767801Y-3376841D02*
X4767801Y-3338746D01*
X4767801Y-3338746D02*
X4758277Y-3291127D01*
X4758277Y-3291127D02*
X4748753Y-3262555D01*
X4748753Y-3262555D02*
X4739230Y-3243508D01*
X4739230Y-3243508D02*
X4720182Y-3214936D01*
X4720182Y-3214936D02*
X4710658Y-3205412D01*
X5072563Y-3510174D02*
X5063039Y-3500650D01*
X5063039Y-3500650D02*
X5043992Y-3472079D01*
X5043992Y-3472079D02*
X5034468Y-3453031D01*
X5034468Y-3453031D02*
X5024944Y-3424460D01*
X5024944Y-3424460D02*
X5015420Y-3376841D01*
X5015420Y-3376841D02*
X5015420Y-3338746D01*
X5015420Y-3338746D02*
X5024944Y-3291127D01*
X5024944Y-3291127D02*
X5034468Y-3262555D01*
X5034468Y-3262555D02*
X5043992Y-3243508D01*
X5043992Y-3243508D02*
X5063039Y-3214936D01*
X5063039Y-3214936D02*
X5072563Y-3205412D01*
X5148753Y-3300650D02*
X5148753Y-3433984D01*
X5148753Y-3319698D02*
X5158277Y-3310174D01*
X5158277Y-3310174D02*
X5177325Y-3300650D01*
X5177325Y-3300650D02*
X5205896Y-3300650D01*
X5205896Y-3300650D02*
X5224944Y-3310174D01*
X5224944Y-3310174D02*
X5234468Y-3329222D01*
X5234468Y-3329222D02*
X5234468Y-3433984D01*
X5358277Y-3433984D02*
X5339230Y-3424460D01*
X5339230Y-3424460D02*
X5329706Y-3414936D01*
X5329706Y-3414936D02*
X5320182Y-3395888D01*
X5320182Y-3395888D02*
X5320182Y-3338746D01*
X5320182Y-3338746D02*
X5329706Y-3319698D01*
X5329706Y-3319698D02*
X5339230Y-3310174D01*
X5339230Y-3310174D02*
X5358277Y-3300650D01*
X5358277Y-3300650D02*
X5386849Y-3300650D01*
X5386849Y-3300650D02*
X5405896Y-3310174D01*
X5405896Y-3310174D02*
X5415420Y-3319698D01*
X5415420Y-3319698D02*
X5424944Y-3338746D01*
X5424944Y-3338746D02*
X5424944Y-3395888D01*
X5424944Y-3395888D02*
X5415420Y-3414936D01*
X5415420Y-3414936D02*
X5405896Y-3424460D01*
X5405896Y-3424460D02*
X5386849Y-3433984D01*
X5386849Y-3433984D02*
X5358277Y-3433984D01*
X5482087Y-3300650D02*
X5558277Y-3300650D01*
X5510658Y-3233984D02*
X5510658Y-3405412D01*
X5510658Y-3405412D02*
X5520182Y-3424460D01*
X5520182Y-3424460D02*
X5539230Y-3433984D01*
X5539230Y-3433984D02*
X5558277Y-3433984D01*
X5777325Y-3300650D02*
X5777325Y-3500650D01*
X5777325Y-3310174D02*
X5796372Y-3300650D01*
X5796372Y-3300650D02*
X5834468Y-3300650D01*
X5834468Y-3300650D02*
X5853515Y-3310174D01*
X5853515Y-3310174D02*
X5863039Y-3319698D01*
X5863039Y-3319698D02*
X5872563Y-3338746D01*
X5872563Y-3338746D02*
X5872563Y-3395888D01*
X5872563Y-3395888D02*
X5863039Y-3414936D01*
X5863039Y-3414936D02*
X5853515Y-3424460D01*
X5853515Y-3424460D02*
X5834468Y-3433984D01*
X5834468Y-3433984D02*
X5796372Y-3433984D01*
X5796372Y-3433984D02*
X5777325Y-3424460D01*
X5986849Y-3433984D02*
X5967801Y-3424460D01*
X5967801Y-3424460D02*
X5958277Y-3405412D01*
X5958277Y-3405412D02*
X5958277Y-3233984D01*
X6148753Y-3433984D02*
X6148753Y-3329222D01*
X6148753Y-3329222D02*
X6139230Y-3310174D01*
X6139230Y-3310174D02*
X6120182Y-3300650D01*
X6120182Y-3300650D02*
X6082087Y-3300650D01*
X6082087Y-3300650D02*
X6063039Y-3310174D01*
X6148753Y-3424460D02*
X6129706Y-3433984D01*
X6129706Y-3433984D02*
X6082087Y-3433984D01*
X6082087Y-3433984D02*
X6063039Y-3424460D01*
X6063039Y-3424460D02*
X6053515Y-3405412D01*
X6053515Y-3405412D02*
X6053515Y-3386365D01*
X6053515Y-3386365D02*
X6063039Y-3367317D01*
X6063039Y-3367317D02*
X6082087Y-3357793D01*
X6082087Y-3357793D02*
X6129706Y-3357793D01*
X6129706Y-3357793D02*
X6148753Y-3348269D01*
X6215420Y-3300650D02*
X6291611Y-3300650D01*
X6243992Y-3233984D02*
X6243992Y-3405412D01*
X6243992Y-3405412D02*
X6253515Y-3424460D01*
X6253515Y-3424460D02*
X6272563Y-3433984D01*
X6272563Y-3433984D02*
X6291611Y-3433984D01*
X6434468Y-3424460D02*
X6415420Y-3433984D01*
X6415420Y-3433984D02*
X6377325Y-3433984D01*
X6377325Y-3433984D02*
X6358277Y-3424460D01*
X6358277Y-3424460D02*
X6348753Y-3405412D01*
X6348753Y-3405412D02*
X6348753Y-3329222D01*
X6348753Y-3329222D02*
X6358277Y-3310174D01*
X6358277Y-3310174D02*
X6377325Y-3300650D01*
X6377325Y-3300650D02*
X6415420Y-3300650D01*
X6415420Y-3300650D02*
X6434468Y-3310174D01*
X6434468Y-3310174D02*
X6443992Y-3329222D01*
X6443992Y-3329222D02*
X6443992Y-3348269D01*
X6443992Y-3348269D02*
X6348753Y-3367317D01*
X6615420Y-3433984D02*
X6615420Y-3233984D01*
X6615420Y-3424460D02*
X6596373Y-3433984D01*
X6596373Y-3433984D02*
X6558277Y-3433984D01*
X6558277Y-3433984D02*
X6539230Y-3424460D01*
X6539230Y-3424460D02*
X6529706Y-3414936D01*
X6529706Y-3414936D02*
X6520182Y-3395888D01*
X6520182Y-3395888D02*
X6520182Y-3338746D01*
X6520182Y-3338746D02*
X6529706Y-3319698D01*
X6529706Y-3319698D02*
X6539230Y-3310174D01*
X6539230Y-3310174D02*
X6558277Y-3300650D01*
X6558277Y-3300650D02*
X6596373Y-3300650D01*
X6596373Y-3300650D02*
X6615420Y-3310174D01*
X6691611Y-3510174D02*
X6701134Y-3500650D01*
X6701134Y-3500650D02*
X6720182Y-3472079D01*
X6720182Y-3472079D02*
X6729706Y-3453031D01*
X6729706Y-3453031D02*
X6739230Y-3424460D01*
X6739230Y-3424460D02*
X6748753Y-3376841D01*
X6748753Y-3376841D02*
X6748753Y-3338746D01*
X6748753Y-3338746D02*
X6739230Y-3291127D01*
X6739230Y-3291127D02*
X6729706Y-3262555D01*
X6729706Y-3262555D02*
X6720182Y-3243508D01*
X6720182Y-3243508D02*
X6701134Y-3214936D01*
X6701134Y-3214936D02*
X6691611Y-3205412D01*
M02*
